<?xml version="1.0" encoding="UTF-8"?>
<svg xmlns="http://www.w3.org/2000/svg" version="1.1" xmlns:xlink="http://www.w3.org/1999/xlink" viewBox="0 0 1920 1080">
  <!-- Generator: Adobe Illustrator 29.1.0, SVG Export Plug-In . SVG Version: 2.1.0 Build 142)  -->
  <defs>
    <style>
      .st0 {
        fill: url(#linear-gradient2);
      }

      .st1 {
        fill: url(#linear-gradient10);
      }

      .st2 {
        fill: #a50e27;
      }

      .st3 {
        fill: url(#linear-gradient1);
      }

      .st4 {
        fill: url(#linear-gradient9);
      }

      .st5 {
        fill: url(#linear-gradient18);
      }

      .st6 {
        fill: #dd1029;
      }

      .st7 {
        fill: url(#linear-gradient8);
      }

      .st8 {
        fill: url(#linear-gradient11);
      }

      .st9 {
        fill: url(#linear-gradient16);
      }

      .st10 {
        fill: #353baf;
      }

      .st11 {
        fill: #efc206;
      }

      .st12 {
        fill: url(#linear-gradient12);
      }

      .st13 {
        fill: url(#linear-gradient7);
      }

      .st14 {
        fill: url(#linear-gradient4);
      }

      .st15 {
        fill: #eacc6c;
      }

      .st16 {
        fill: url(#linear-gradient14);
      }

      .st17 {
        fill: url(#linear-gradient5);
      }

      .st18 {
        fill: #fcee21;
      }

      .st19 {
        fill: url(#linear-gradient3);
      }

      .st20 {
        fill: url(#linear-gradient15);
      }

      .st21 {
        fill: url(#linear-gradient17);
      }

      .st22 {
        fill: url(#linear-gradient6);
      }

      .st23 {
        fill: url(#linear-gradient13);
      }

      .st24 {
        fill: url(#linear-gradient);
      }
    </style>
    <linearGradient id="linear-gradient" x1="1080.59" y1="867.12" x2="1158.01" y2="867.12" gradientTransform="translate(-27.28 47.8) rotate(-6.19)" gradientUnits="userSpaceOnUse">
      <stop offset=".26" stop-color="#f5095f"/>
      <stop offset=".49" stop-color="#fff"/>
      <stop offset=".7" stop-color="#f5095f"/>
    </linearGradient>
    <linearGradient id="linear-gradient1" x1="778.13" y1="523.82" x2="843.13" y2="523.82" gradientTransform="translate(-6.84 28.19)" gradientUnits="userSpaceOnUse">
      <stop offset=".26" stop-color="#f5c919"/>
      <stop offset=".49" stop-color="#fff"/>
      <stop offset=".69" stop-color="#f5c919"/>
    </linearGradient>
    <linearGradient id="linear-gradient2" x1="1027.53" y1="465.25" x2="1085.53" y2="465.25" gradientTransform="translate(-90.08 302.43) rotate(-14.53)" gradientUnits="userSpaceOnUse">
      <stop offset=".25" stop-color="#e591f5"/>
      <stop offset=".49" stop-color="#fff"/>
      <stop offset=".7" stop-color="#e591f5"/>
    </linearGradient>
    <linearGradient id="linear-gradient3" x1="507.62" y1="801.71" x2="625.62" y2="801.71" gradientTransform="translate(1373.55 209.67) rotate(90)" gradientUnits="userSpaceOnUse">
      <stop offset=".26" stop-color="#b215f5"/>
      <stop offset=".49" stop-color="#fff"/>
      <stop offset=".7" stop-color="#b215f5"/>
    </linearGradient>
    <linearGradient id="linear-gradient4" x1="919.36" y1="296.6" x2="987.62" y2="296.6" gradientTransform="translate(-53.59 329.74) rotate(-17.55)" gradientUnits="userSpaceOnUse">
      <stop offset=".26" stop-color="#46b3c2"/>
      <stop offset=".49" stop-color="#fff"/>
      <stop offset=".69" stop-color="#46b3c2"/>
    </linearGradient>
    <linearGradient id="linear-gradient5" x1="951.15" y1="432.55" x2="1020.15" y2="432.55" gradientTransform="translate(-28.85 127.93)" gradientUnits="userSpaceOnUse">
      <stop offset=".25" stop-color="#f00110"/>
      <stop offset=".49" stop-color="#fff"/>
      <stop offset=".7" stop-color="#ff1c00"/>
    </linearGradient>
    <linearGradient id="linear-gradient6" x1="756.76" y1="441.16" x2="834.76" y2="441.16" gradientTransform="translate(1237.63 -379.97) rotate(90)" gradientUnits="userSpaceOnUse">
      <stop offset=".26" stop-color="#f5831f"/>
      <stop offset=".49" stop-color="#fff"/>
      <stop offset=".69" stop-color="#f5831f"/>
    </linearGradient>
    <linearGradient id="linear-gradient7" x1="1002.41" y1="645.08" x2="1114.41" y2="645.08" gradientTransform="translate(-24.35 34.87)" gradientUnits="userSpaceOnUse">
      <stop offset=".26" stop-color="#3e7ff5"/>
      <stop offset=".49" stop-color="#fff"/>
      <stop offset=".7" stop-color="#3e7ff5"/>
    </linearGradient>
    <linearGradient id="linear-gradient8" x1="849.44" y1="502.83" x2="944.44" y2="502.83" gradientTransform="translate(1406.35 -431.81) rotate(90)" gradientUnits="userSpaceOnUse">
      <stop offset=".26" stop-color="#f590c1"/>
      <stop offset=".49" stop-color="#fff"/>
      <stop offset=".69" stop-color="#f590c1"/>
    </linearGradient>
    <linearGradient id="linear-gradient9" x1="657.59" y1="468.41" x2="728.75" y2="468.41" gradientTransform="translate(-14.47 29.7)" gradientUnits="userSpaceOnUse">
      <stop offset=".26" stop-color="#6df507"/>
      <stop offset=".49" stop-color="#fff"/>
      <stop offset=".69" stop-color="#6df507"/>
    </linearGradient>
    <linearGradient id="linear-gradient10" x1="991.71" y1="422.15" x2="1056.71" y2="422.15" gradientTransform="translate(-33.06 -14.53)" xlink:href="#linear-gradient1"/>
    <linearGradient id="linear-gradient11" x1="583.36" y1="626.26" x2="634.93" y2="626.26" gradientTransform="translate(205.15 -230.01) rotate(18.85)" xlink:href="#linear-gradient5"/>
    <linearGradient id="linear-gradient12" x1="1176.57" y1="542.59" x2="1249.85" y2="542.59" gradientTransform="translate(153.88 -228.37) rotate(16.07)" xlink:href="#linear-gradient6"/>
    <linearGradient id="linear-gradient13" x1="1059.56" y1="644.55" x2="1136.99" y2="644.55" xlink:href="#linear-gradient"/>
    <linearGradient id="linear-gradient14" x1="790.54" y1="248.24" x2="829.42" y2="248.24" xlink:href="#linear-gradient2"/>
    <linearGradient id="linear-gradient15" x1="653.81" y1="535.62" x2="765.81" y2="535.62" gradientTransform="translate(-40.66 125.84)" xlink:href="#linear-gradient7"/>
    <linearGradient id="linear-gradient16" x1="904.9" y1="767.15" x2="1010.73" y2="767.15" gradientTransform="translate(-161.82 271.82) rotate(-14.53)" xlink:href="#linear-gradient8"/>
    <linearGradient id="linear-gradient17" x1="748.9" y1="662.97" x2="834.9" y2="662.97" gradientTransform="translate(213.34 -137.65) rotate(13.83)" xlink:href="#linear-gradient3"/>
    <linearGradient id="linear-gradient18" x1="929.12" y1="242.9" x2="993.61" y2="242.9" gradientTransform="translate(-161.82 271.82) rotate(-14.53)" xlink:href="#linear-gradient8"/>
  </defs>
  <g id="presents">
    <g>
      <rect class="st10" x="1070" y="884" width="171.49" height="175.99" transform="translate(2311.49 1943.99) rotate(180)"/>
      <rect class="st18" x="1063" y="959.42" width="178.49" height="29.93" transform="translate(2304.49 1948.78) rotate(180)"/>
      <rect class="st18" x="1131.83" y="884" width="47.83" height="175.99" transform="translate(2311.49 1943.99) rotate(180)"/>
    </g>
    <g>
      <rect class="st15" x="1295" y="840" width="205" height="232.69" transform="translate(2795 1912.69) rotate(180)"/>
      <rect class="st10" x="1373.63" y="843.19" width="42.12" height="234.81" transform="translate(2789.38 1921.19) rotate(180)"/>
      <rect class="st10" x="1295" y="947.31" width="205" height="35.06" transform="translate(2795 1929.69) rotate(180)"/>
    </g>
    <g>
      <g>
        <rect class="st15" x="245" y="820" width="219" height="219"/>
        <rect class="st10" x="335" y="815" width="45" height="221"/>
        <rect class="st10" x="245" y="905" width="219" height="33"/>
      </g>
      <g>
        <rect class="st10" x="527" y="905" width="147" height="147"/>
        <rect class="st18" x="527" y="964" width="153" height="25"/>
        <rect class="st18" x="580" y="905" width="41" height="147"/>
      </g>
    </g>
  </g>
  <g id="ornaments">
    <g id="ornaments1" data-name="ornaments">
      <path class="st6" d="M936,181"/>
      <path class="st6" d="M956,176"/>
      <path class="st6" d="M939,175"/>
      <path class="st6" d="M1013.68,185.2"/>
      <g>
        <path class="st24" d="M1217.64,785.96c2.31,15.84-13.09,30.08-34.4,31.8-21.31,1.72-40.46-9.73-42.78-25.57s13.09-30.08,34.4-31.8,40.46,9.73,42.78,25.57Z"/>
        <g>
          <polyline class="st6" points="1182.97 757.51 1154.24 783.35 1153.11 775.62 1138.38 777.91 1169.31 757.26"/>
          <polyline class="st6" points="1164.11 758.94 1199.06 779.77 1197.92 772 1212.7 771.92 1177.14 756.54"/>
          <path class="st11" d="M1190.21,762.97l-31.02,2.5c-4.42.36-8.35-1.44-8.72-4s2.94-4.94,7.36-5.3l31.02-2.5c4.42-.36,8.35,1.44,8.72,4s-2.94,4.94-7.36,5.3Z"/>
          <path class="st6" d="M1179.53,755.61c14.26,2.39,26.37-.22,29.46-4.41,1.7-2.32.95-5.5-2.23-7.06-8.49-4.16-33.27,3.8-32.84,8.28.03.33.27.69.27.69.96,1.56,3.8,2.23,5.33,2.51Z"/>
          <path class="st6" d="M1169.33,749.82c-12.68-4.33-25.36-3.45-30.04.25-2.58,2.04-3.17,5.28-.76,7.26,6.42,5.27,33.44.88,34.86-3.58.11-.33.02-.72.02-.72-.28-1.67-2.73-2.72-4.08-3.21Z"/>
          <path class="st2" d="M1182.34,752.85c-.38-2.57-4.28-4.36-8.72-4-4.44.36-7.74,2.73-7.36,5.3s4.28,4.36,8.72,4,7.74-2.73,7.36-5.3Z"/>
        </g>
      </g>
      <g>
        <ellipse class="st3" cx="803.8" cy="552.01" rx="32.5" ry="18.85" transform="translate(-98.28 181.78) rotate(-12.17)"/>
        <g>
          <polyline class="st6" points="807.66 531.25 784.87 557.36 783.42 550.63 771.04 554.29 796.02 532.55"/>
          <polyline class="st6" points="791.71 534.61 822.75 549.23 821.29 542.46 833.85 540.75 802.64 531.04"/>
          <path class="st11" d="M814.16,535.3l-26.22,5.65c-3.74.81-7.19-.36-7.67-2.59s2.19-4.71,5.92-5.52l26.22-5.65c3.74-.81,7.19.36,7.67,2.59s-2.19,4.71-5.92,5.52Z"/>
          <path class="st6" d="M804.61,529.95c12.27.54,22.41-3.11,24.77-7.18,1.3-2.24.46-4.99-2.34-6.02-7.48-2.75-28.05,7.05-27.4,10.97.05.29.28.58.28.58.92,1.28,3.37,1.56,4.69,1.64Z"/>
          <path class="st6" d="M795.57,525.95c-11.06-2.44-21.78-.26-25.53,3.55-2.07,2.1-2.36,5.04-.19,6.52,5.8,3.97,28.49-2.92,29.42-7.04.07-.31-.03-.64-.03-.64-.34-1.45-2.49-2.12-3.67-2.4Z"/>
          <ellipse class="st2" cx="800.03" cy="528.66" rx="6.95" ry="4.14" transform="translate(-93.44 180.46) rotate(-12.17)"/>
        </g>
      </g>
      <g>
        <circle class="st0" cx="1049.38" cy="487.7" r="29"/>
        <g>
          <polyline class="st6" points="1048.18 456.48 1032.38 492.63 1029.79 482.64 1019.21 486.88 1037.84 457.33"/>
          <polyline class="st6" points="1034.31 459.95 1065.29 484.15 1062.69 474.11 1073.79 472.74 1043.57 455.71"/>
          <path class="st11" d="M1054.86,462.99l-22.78,5.9c-3.25.84-6.61-1.17-7.46-4.48s1.1-6.7,4.35-7.54l22.78-5.9c3.25-.84,6.61,1.17,7.46,4.48s-1.1,6.7-4.35,7.54Z"/>
          <path class="st6" d="M1045.16,454.3c11.27,1.9,19.8-2.53,21.18-8.26.76-3.17-.52-7.26-3.26-9.02-7.32-4.71-24.18,7.79-22.85,13.59.1.43.36.87.36.87,1.07,1.95,3.36,2.59,4.57,2.82Z"/>
          <path class="st6" d="M1036.19,447.62c-10.52-4.57-19.86-2.34-22.55,2.89-1.48,2.88-1.19,7.16,1.06,9.53,6.02,6.33,25.36-1.7,25.43-7.64,0-.44-.15-.94-.15-.94-.59-2.15-2.66-3.32-3.79-3.84Z"/>
          <ellipse class="st2" cx="1040.75" cy="452" rx="6.1" ry="6.21" transform="translate(-80.12 275.6) rotate(-14.53)"/>
        </g>
      </g>
      <g>
        <ellipse class="st19" cx="571.83" cy="776.29" rx="43.45" ry="59" transform="translate(-318.67 1145.93) rotate(-76.17)"/>
        <g>
          <polyline class="st6" points="590.66 735.72 550.13 758.03 552.62 747.91 536.96 745.57 577.23 730.57"/>
          <polyline class="st6" points="571.31 730.84 596.18 769.43 598.69 759.25 613.36 764.38 585.33 732.44"/>
          <path class="st11" d="M595.27,745.16l-31.89-7.85c-4.55-1.12-7.59-4.78-6.77-8.12s5.22-5.17,9.77-4.05l31.89,7.85c4.55,1.12,7.59,4.78,6.77,8.12s-5.22,5.17-9.77,4.05Z"/>
          <path class="st6" d="M588.13,732.12c13,8.06,26.22,9.08,31.24,4.9,2.77-2.31,3.51-6.58,1.09-9.66-6.46-8.24-34.73-7.02-36.39-1.24-.12.43-.05.96-.05.96.22,2.3,2.72,4.15,4.11,5.04Z"/>
          <path class="st6" d="M580.73,721.22c-10.54-9.94-23.5-13.33-29.87-10.34-3.51,1.65-5.6,5.52-4.14,8.85,3.9,8.91,32.71,12.96,36.2,7.86.26-.38.35-.89.35-.89.5-2.2-1.43-4.39-2.54-5.48Z"/>
          <ellipse class="st2" cx="583.93" cy="727.61" rx="6.27" ry="8.52" transform="translate(-262.19 1120.63) rotate(-76.17)"/>
        </g>
      </g>
      <g>
        <path class="st14" d="M913.4,338.37c2.77,11.64,19.13,15.13,36.56,7.8,17.43-7.33,29.31-22.72,26.55-34.36-2.77-11.64-19.13-15.13-36.56-7.8-17.43,7.33-29.31,22.72-26.55,34.36Z"/>
        <g>
          <polyline class="st6" points="944.22 297.63 929.35 328.03 927.62 320.73 918.55 325.68 935.5 299.92"/>
          <polyline class="st6" points="932.42 302.51 957.37 316.28 955.62 308.94 965 306.13 940.38 297.77"/>
          <path class="st11" d="M949.53,301.6l-19.39,8.16c-2.76,1.16-5.5.14-6.07-2.27s1.22-5.34,3.98-6.51l19.39-8.16c2.76-1.16,5.5-.14,6.07,2.27s-1.22,5.34-3.98,6.51Z"/>
          <path class="st6" d="M941.78,296.43c9.38-.31,16.74-5.08,18.15-9.73.78-2.56-.12-5.52-2.34-6.44-5.94-2.47-20.65,9.84-19.79,14.1.06.32.27.62.27.62.82,1.34,2.71,1.47,3.72,1.45Z"/>
          <path class="st6" d="M934.53,292.69c-8.63-1.86-16.57,1.33-19.06,5.79-1.37,2.46-1.32,5.71.47,7.19,4.78,3.94,21.37-5.32,21.69-9.92.02-.34-.08-.7-.08-.7-.4-1.57-2.09-2.14-3.01-2.36Z"/>
          <path class="st2" d="M943.2,293.23c-.58-2.42-3.29-3.44-6.07-2.27s-4.56,4.08-3.98,6.51,3.29,3.44,6.07,2.27,4.56-4.08,3.98-6.51Z"/>
        </g>
      </g>
      <g>
        <ellipse class="st17" cx="956.8" cy="560.49" rx="34.5" ry="21.92" transform="translate(-147.41 458.86) rotate(-25.1)"/>
        <g>
          <polyline class="st6" points="954.64 533.88 940.58 562.19 937.81 556.26 927.82 561.96 944.77 537.27"/>
          <polyline class="st6" points="941.47 539.97 971.84 547.58 969.05 541.63 979.63 537.69 950.21 534.63"/>
          <path class="st11" d="M961.22,536.38l-21.63,10.13c-3.08,1.44-6.36,1.02-7.28-.93s.85-4.74,3.94-6.19l21.63-10.13c3.08-1.44,6.36-1.02,7.28.93s-.85,4.74-3.94,6.19Z"/>
          <path class="st6" d="M951.68,533.26c10.84-1.81,18.87-7.08,20.03-11.26.64-2.31-.72-4.67-3.39-5.09-7.15-1.13-22.91,11.77-21.47,15.25.11.26.37.48.37.48,1.09,1,3.29.8,4.46.62Z"/>
          <path class="st6" d="M942.89,531.28c-10.2-.16-19.08,3.86-21.5,8.07-1.34,2.32-.93,5.08,1.3,6.03,5.95,2.56,24.22-8.05,24.11-12.01,0-.29-.17-.58-.17-.58-.63-1.27-2.65-1.48-3.74-1.51Z"/>
          <ellipse class="st2" cx="947.39" cy="532.93" rx="6.19" ry="3.93" transform="translate(-136.61 452.27) rotate(-25.1)"/>
        </g>
      </g>
      <g>
        <ellipse class="st22" cx="796.47" cy="415.78" rx="21.86" ry="39" transform="translate(176.5 1066.08) rotate(-73.93)"/>
        <g>
          <polyline class="st6" points="812.74 391.97 774.93 404.63 777.02 397.4 762.1 394.2 799.87 386.91"/>
          <polyline class="st6" points="794.26 386.55 818.92 417.34 821.02 410.07 835.07 415.22 807.6 389.04"/>
          <path class="st11" d="M817.38,399.36l-30.46-8.77c-4.34-1.25-7.33-4.23-6.64-6.62s4.81-3.33,9.15-2.08l30.46,8.77c4.34,1.25,7.33,4.23,6.64,6.62s-4.81,3.33-9.15,2.08Z"/>
          <path class="st6" d="M810.25,389.07c12.55,7.16,25.12,9.15,29.76,6.53,2.56-1.44,3.14-4.53.77-7.02-6.35-6.68-33.12-8.42-34.54-4.32-.11.3-.02.71-.02.71.28,1.72,2.7,3.32,4.03,4.1Z"/>
          <path class="st6" d="M802.93,380.35c-10.27-8.32-22.66-12.03-28.61-10.41-3.29.89-5.16,3.55-3.68,6.14,3.94,6.94,31.38,12.62,34.55,9.18.24-.25.31-.63.31-.63.42-1.57-1.47-3.37-2.56-4.28Z"/>
          <ellipse class="st2" cx="806.14" cy="385.35" rx="4.53" ry="8.22" transform="translate(212.74 1053.36) rotate(-73.93)"/>
        </g>
      </g>
      <g>
        <ellipse class="st13" cx="1034.06" cy="679.96" rx="56" ry="35.78" transform="translate(-137.53 281.21) rotate(-14.53)"/>
        <g>
          <polyline class="st6" points="1033.05 642.84 1005.74 679.32 1003.37 670.16 987.73 675.59 1018.2 645.01"/>
          <polyline class="st6" points="1012.81 647.97 1053.8 666.91 1051.42 657.7 1067.43 654.93 1026.58 642.71"/>
          <path class="st11" d="M1041.71,648.15l-33.26,8.62c-4.74,1.23-9.27-.24-10.05-3.27s2.45-6.52,7.2-7.75l33.26-8.62c4.74-1.23,9.27.24,10.05,3.27s-2.45,6.52-7.2,7.75Z"/>
          <path class="st6" d="M1029.03,641.16c15.81.32,28.56-5.01,31.29-10.66,1.5-3.11.21-6.83-3.46-8.15-9.82-3.51-35.51,10.6-34.38,15.94.08.4.4.78.4.78,1.27,1.72,4.45,2.02,6.15,2.08Z"/>
          <path class="st6" d="M1017.11,635.99c-14.39-2.96-28.01.39-32.54,5.72-2.5,2.94-2.65,6.97.25,8.93,7.75,5.23,36.39-4.96,37.27-10.62.07-.42-.09-.87-.09-.87-.55-1.97-3.36-2.81-4.9-3.15Z"/>
          <ellipse class="st2" cx="1023.05" cy="639.55" rx="8.91" ry="5.69" transform="translate(-127.74 277.15) rotate(-14.53)"/>
        </g>
      </g>
      <g>
        <ellipse class="st7" cx="903.53" cy="465.13" rx="39.31" ry="47.5" transform="translate(142.06 1138.1) rotate(-68.71)"/>
        <g>
          <polyline class="st6" points="924.38 430.64 888.56 447.13 891.99 438.34 879.68 434.96 914.27 424.96"/>
          <polyline class="st6" points="909.45 424.71 924.13 461.04 927.58 452.2 938.7 457.97 920.54 427.28"/>
          <path class="st11" d="M926.78,439.4l-24.64-9.6c-3.51-1.37-5.46-4.87-4.33-7.78s4.93-4.17,8.45-2.8l24.64,9.6c3.51,1.37,5.46,4.87,4.33,7.78s-4.93,4.17-8.45,2.8Z"/>
          <path class="st6" d="M922.84,427.23c9.37,8.23,19.89,10.23,24.53,6.92,2.56-1.82,3.75-5.56,2.23-8.5-4.06-7.86-27.04-9.09-29.19-4.1-.16.37-.17.85-.17.85-.14,2.07,1.62,3.92,2.61,4.82Z"/>
          <path class="st6" d="M918.39,416.94c-7.11-9.7-17.1-13.78-22.66-11.64-3.07,1.18-5.29,4.44-4.58,7.52,1.9,8.24,24.58,14.21,28.12,9.96.26-.31.41-.76.41-.76.71-1.91-.54-4.02-1.28-5.08Z"/>
          <ellipse class="st2" cx="920.08" cy="422.88" rx="5.67" ry="6.86" transform="translate(191.98 1126.62) rotate(-68.71)"/>
        </g>
      </g>
      <g>
        <ellipse class="st4" cx="678.7" cy="498.12" rx="35.58" ry="24.79" transform="translate(-103.27 186.23) rotate(-14.53)"/>
        <g>
          <polyline class="st6" points="681.77 469.74 656.28 499.29 654.43 492.14 640.29 496.88 668.42 471.89"/>
          <polyline class="st6" points="663.52 474.39 699.61 488.1 697.75 480.91 712.14 478.26 675.99 469.84"/>
          <path class="st11" d="M689.35,473.68l-29.99,7.77c-4.28,1.11-8.28.08-8.89-2.28s2.38-5.21,6.66-6.32l29.99-7.77c4.28-1.11,8.28-.08,8.89,2.28s-2.38,5.21-6.66,6.32Z"/>
          <path class="st6" d="M678.23,468.54c14.13-.21,25.68-4.79,28.29-9.32,1.44-2.5.39-5.39-2.86-6.32-8.68-2.48-32.06,9.4-31.21,13.57.06.31.33.61.33.61,1.09,1.32,3.92,1.46,5.44,1.46Z"/>
          <path class="st6" d="M667.72,464.82c-12.78-1.91-25.05,1.13-29.26,5.47-2.32,2.39-2.57,5.57-.04,7.03,6.77,3.89,32.68-4.98,33.63-9.47.07-.33-.05-.68-.05-.68-.44-1.54-2.92-2.11-4.29-2.34Z"/>
          <ellipse class="st2" cx="672.92" cy="467.45" rx="8.03" ry="4.44" transform="translate(-95.76 183.8) rotate(-14.53)"/>
        </g>
      </g>
      <g>
        <ellipse class="st1" cx="991.15" cy="407.62" rx="32.5" ry="18.85" transform="translate(-63.64 218.02) rotate(-12.17)"/>
        <g>
          <polyline class="st6" points="995.02 386.86 972.23 412.97 970.78 406.24 958.4 409.9 983.38 388.16"/>
          <polyline class="st6" points="979.07 390.22 1010.11 404.84 1008.65 398.07 1021.21 396.36 990 386.65"/>
          <path class="st11" d="M1001.52,390.91l-26.22,5.65c-3.74.81-7.19-.36-7.67-2.59s2.19-4.71,5.92-5.52l26.22-5.65c3.74-.81,7.19.36,7.67,2.59s-2.19,4.71-5.92,5.52Z"/>
          <path class="st6" d="M991.97,385.56c12.27.54,22.41-3.11,24.77-7.18,1.3-2.24.46-4.99-2.34-6.02-7.48-2.75-28.05,7.05-27.4,10.97.05.29.28.58.28.58.92,1.28,3.37,1.56,4.69,1.64Z"/>
          <path class="st6" d="M982.93,381.56c-11.06-2.44-21.78-.26-25.53,3.55-2.07,2.1-2.36,5.04-.19,6.52,5.8,3.97,28.49-2.92,29.42-7.04.07-.31-.03-.64-.03-.64-.34-1.45-2.49-2.12-3.67-2.4Z"/>
          <ellipse class="st2" cx="987.39" cy="384.27" rx="6.95" ry="4.14" transform="translate(-58.81 216.7) rotate(-12.17)"/>
        </g>
      </g>
      <g>
        <path class="st8" d="M603.07,569.59c-2.85,10.42-15.79,14.32-28.91,8.72-13.12-5.6-21.45-18.58-18.61-28.99s15.79-14.32,28.91-8.72,21.45,18.58,18.61,28.99Z"/>
        <g>
          <polyline class="st6" points="591.62 540.68 569.96 550.33 571.5 544.71 563.39 542.13 584.74 536.66"/>
          <polyline class="st6" points="581.64 536.35 593.71 560.5 595.26 554.84 602.79 558.94 588.92 538.37"/>
          <path class="st11" d="M593.81,546.47l-16.45-7.02c-2.35-1-3.85-3.34-3.34-5.2s2.84-2.57,5.19-1.57l16.45,7.02c2.35,1,3.85,3.34,3.34,5.2s-2.84,2.57-5.19,1.57Z"/>
          <path class="st6" d="M590.39,538.4c6.59,5.65,13.46,7.28,16.18,5.26,1.5-1.11,1.98-3.51.8-5.47-3.18-5.25-17.95-6.76-18.95-3.56-.07.24-.05.55-.05.55.06,1.34,1.32,2.6,2.02,3.22Z"/>
          <path class="st6" d="M586.78,531.56c-5.26-6.54-11.95-9.51-15.34-8.29-1.87.68-3.05,2.74-2.37,4.77,1.82,5.43,16.75,10.02,18.7,7.36.14-.2.21-.49.21-.49.31-1.23-.64-2.64-1.2-3.35Z"/>
          <path class="st2" d="M592.57,537.3c.51-1.87-.98-4.2-3.34-5.2s-4.68-.3-5.19,1.57.98,4.2,3.34,5.2,4.68.3,5.19-1.57Z"/>
        </g>
      </g>
      <g>
        <path class="st12" d="M1205.62,635.75c-3.22,7.48-21.97,10.42-41.9,6.58-19.92-3.84-33.47-13.02-30.25-20.49s21.97-10.42,41.9-6.58c19.92,3.84,33.47,13.02,30.25,20.49Z"/>
        <g>
          <polyline class="st6" points="1185.21 613.44 1148.82 621.6 1150.82 616.94 1136.46 614.88 1172.82 610.18"/>
          <polyline class="st6" points="1167.42 609.95 1191.16 629.79 1193.17 625.11 1206.7 628.43 1180.26 611.56"/>
          <path class="st11" d="M1189.67,618.2l-29.32-5.65c-4.18-.81-7.06-2.73-6.4-4.27s4.63-2.14,8.81-1.34l29.32,5.65c4.18.81,7.06,2.73,6.4,4.27s-4.63,2.14-8.81,1.34Z"/>
          <path class="st6" d="M1182.81,611.57c12.08,4.61,24.18,5.9,28.65,4.21,2.47-.93,3.03-2.92.74-4.53-6.12-4.31-31.88-5.43-33.25-2.78-.1.2-.02.45-.02.45.26,1.11,2.59,2.14,3.88,2.64Z"/>
          <path class="st6" d="M1175.76,605.95c-9.88-5.36-21.81-7.75-27.54-6.71-3.16.57-4.97,2.29-3.55,3.96,3.8,4.47,30.2,8.13,33.25,5.92.23-.16.3-.4.3-.4.4-1.02-1.42-2.17-2.46-2.76Z"/>
          <path class="st2" d="M1186.46,610.64c.67-1.55-2.2-3.46-6.4-4.27s-8.14-.21-8.81,1.34,2.2,3.46,6.4,4.27,8.14.21,8.81-1.34Z"/>
        </g>
      </g>
      <g>
        <path class="st23" d="M1172.72,566.96c2.31,15.84-13.09,30.08-34.4,31.8-21.31,1.72-40.46-9.73-42.78-25.57s13.09-30.08,34.4-31.8,40.46,9.73,42.78,25.57Z"/>
        <g>
          <polyline class="st6" points="1138.06 538.51 1109.33 564.35 1108.2 556.62 1093.46 558.91 1124.39 538.26"/>
          <polyline class="st6" points="1119.2 539.94 1154.14 560.77 1153.01 553 1167.78 552.92 1132.22 537.54"/>
          <path class="st11" d="M1145.29,543.97l-31.02,2.5c-4.42.36-8.35-1.44-8.72-4s2.94-4.94,7.36-5.3l31.02-2.5c4.42-.36,8.35,1.44,8.72,4s-2.94,4.94-7.36,5.3Z"/>
          <path class="st6" d="M1134.61,536.61c14.26,2.39,26.37-.22,29.46-4.41,1.7-2.32.95-5.5-2.23-7.06-8.49-4.16-33.27,3.8-32.84,8.28.03.33.27.69.27.69.96,1.56,3.8,2.23,5.33,2.51Z"/>
          <path class="st6" d="M1124.41,530.82c-12.68-4.33-25.36-3.45-30.04.25-2.58,2.04-3.17,5.28-.76,7.26,6.42,5.27,33.44.88,34.86-3.58.11-.33.02-.72.02-.72-.28-1.67-2.73-2.72-4.08-3.21Z"/>
          <path class="st2" d="M1137.42,533.85c-.38-2.57-4.28-4.36-8.72-4-4.44.36-7.74,2.73-7.36,5.3s4.28,4.36,8.72,4,7.74-2.73,7.36-5.3Z"/>
        </g>
      </g>
      <g>
        <path class="st16" d="M737.69,345.2c2.66,12.14,13.14,19.43,23.4,16.29s16.43-15.54,13.77-27.68c-2.66-12.14-13.14-19.43-23.4-16.29s-16.43,15.54-13.77,27.68Z"/>
        <g>
          <polyline class="st6" points="755.48 315.05 745.01 343.36 743.3 335.54 736.3 338.86 748.63 315.72"/>
          <polyline class="st6" points="746.3 317.77 766.81 336.72 765.08 328.86 772.43 327.79 752.43 314.45"/>
          <path class="st11" d="M759.9,320.15l-15.08,4.62c-2.15.66-4.37-.92-4.94-3.51s.73-5.24,2.88-5.9l15.08-4.62c2.15-.66,4.37.92,4.94,3.51s-.73,5.24-2.88,5.9Z"/>
          <path class="st6" d="M753.48,313.34c7.46,1.49,13.11-1.98,14.02-6.47.5-2.48-.35-5.68-2.16-7.06-4.85-3.69-16.01,6.1-15.13,10.64.07.34.24.69.24.69.71,1.53,2.23,2.03,3.03,2.21Z"/>
          <path class="st6" d="M747.54,308.11c-6.96-3.58-13.15-1.83-14.93,2.26-.98,2.26-.79,5.61.7,7.46,3.99,4.96,16.79-1.33,16.83-5.98,0-.34-.1-.73-.1-.73-.39-1.69-1.76-2.6-2.51-3.01Z"/>
          <path class="st2" d="M754.47,310.34c-.57-2.6-2.78-4.17-4.94-3.51s-3.45,3.3-2.88,5.9,2.78,4.17,4.94,3.51,3.45-3.3,2.88-5.9Z"/>
        </g>
      </g>
      <g>
        <ellipse class="st20" cx="669.15" cy="661.47" rx="56" ry="35.78" transform="translate(-144.56 189.06) rotate(-14.53)"/>
        <g>
          <polyline class="st6" points="668.14 624.35 640.83 660.83 638.45 651.67 622.82 657.1 653.28 626.52"/>
          <polyline class="st6" points="647.9 629.48 688.89 648.42 686.5 639.21 702.51 636.45 661.67 624.23"/>
          <path class="st11" d="M676.8,629.66l-33.26,8.62c-4.74,1.23-9.27-.24-10.05-3.27s2.45-6.52,7.2-7.75l33.26-8.62c4.74-1.23,9.27.24,10.05,3.27s-2.45,6.52-7.2,7.75Z"/>
          <path class="st6" d="M664.12,622.67c15.81.32,28.56-5.01,31.29-10.66,1.5-3.11.21-6.83-3.46-8.15-9.82-3.51-35.51,10.6-34.38,15.94.08.4.4.78.4.78,1.27,1.72,4.45,2.02,6.15,2.08Z"/>
          <path class="st6" d="M652.2,617.5c-14.39-2.96-28.01.39-32.54,5.72-2.5,2.94-2.65,6.97.25,8.93,7.75,5.23,36.39-4.96,37.27-10.62.07-.42-.09-.87-.09-.87-.55-1.97-3.36-2.81-4.9-3.15Z"/>
          <ellipse class="st2" cx="658.13" cy="621.06" rx="8.91" ry="5.69" transform="translate(-134.78 185) rotate(-14.53)"/>
        </g>
      </g>
      <g>
        <path class="st9" d="M1009.65,763.24c5.71,17.83-12.85,37.15-41.46,43.15-28.61,6-56.44-3.59-62.16-21.42-5.71-17.83,12.85-37.15,41.46-43.15,28.61-6,56.44,3.59,62.16,21.42Z"/>
        <g>
          <polyline class="st6" points="954.92 739.91 932.52 769.47 930.03 761.72 916.54 765.71 941.97 741.2"/>
          <polyline class="st6" points="937.37 743.49 974.19 760.77 971.69 752.98 985.63 751.23 949.23 739.58"/>
          <path class="st11" d="M962.76,744.66l-28.84,6.05c-4.11.86-8.15-.53-8.97-3.09s1.87-5.37,5.98-6.23l28.84-6.05c4.11-.86,8.15.53,8.97,3.09.82,2.56-1.87,5.37-5.98,6.23Z"/>
          <path class="st6" d="M951.32,738.36c13.9.83,24.87-3.19,27.02-7.82,1.19-2.55-.11-5.71-3.4-6.94-8.78-3.28-30.73,7.62-29.5,12.13.09.33.39.67.39.67,1.19,1.48,4,1.85,5.49,1.95Z"/>
          <path class="st6" d="M940.63,733.62c-12.77-2.98-24.58-.65-28.33,3.64-2.07,2.37-2.02,5.74.61,7.48,7.03,4.65,31.75-2.88,32.27-7.58.04-.35-.11-.73-.11-.73-.57-1.67-3.07-2.47-4.44-2.81Z"/>
          <path class="st2" d="M953.47,735.24c-.82-2.57-4.84-3.96-8.97-3.09s-6.81,3.65-5.98,6.23,4.84,3.96,8.97,3.09,6.81-3.65,5.98-6.23Z"/>
        </g>
      </g>
      <g>
        <path class="st21" d="M864.83,708.27c-4.11,21.19-25.84,32.62-48.53,25.54s-37.74-30.01-33.63-51.2,25.84-32.62,48.53-25.54c22.69,7.09,37.74,30.01,33.63,51.2Z"/>
        <g>
          <polyline class="st6" points="837.25 658.55 808.19 678.84 809.98 669.63 798.75 667.5 827.63 653.86"/>
          <polyline class="st6" points="823.38 654.1 841.22 689.2 843.01 679.94 853.53 684.61 833.43 655.55"/>
          <path class="st11" d="M840.56,667.13l-22.87-7.14c-3.26-1.02-5.45-4.34-4.85-7.39s3.74-4.7,7-3.69l22.87,7.14c3.26,1.02,5.45,4.34,4.85,7.39s-3.74,4.7-7,3.69Z"/>
          <path class="st6" d="M835.44,655.26c9.32,7.33,18.8,8.26,22.4,4.45,1.99-2.1,2.52-5.99.78-8.79-4.63-7.5-24.9-6.38-26.09-1.13-.09.39-.04.88-.04.88.16,2.1,1.95,3.78,2.94,4.59Z"/>
          <path class="st6" d="M830.14,645.36c-7.55-9.04-16.85-12.12-21.42-9.4-2.52,1.5-4.02,5.02-2.97,8.05,2.79,8.1,23.45,11.79,25.96,7.15.19-.34.25-.81.25-.81.36-2-1.02-4-1.82-4.98Z"/>
          <path class="st2" d="M838.36,653.02c.59-3.06-1.58-6.37-4.85-7.39s-6.41.63-7,3.69,1.58,6.37,4.85,7.39,6.41-.63,7-3.69Z"/>
        </g>
      </g>
      <g>
        <path class="st5" d="M860.87,257.29c3.43,13.86-7.72,28.88-24.91,33.55-17.19,4.66-33.91-2.79-37.34-16.66-3.43-13.86,7.72-28.88,24.91-33.55s33.91,2.79,37.34,16.66Z"/>
        <g>
          <polyline class="st6" points="827.99 239.14 814.53 262.13 813.04 256.1 804.93 259.21 820.21 240.15"/>
          <polyline class="st6" points="817.44 241.93 839.56 255.37 838.06 249.31 846.44 247.95 824.57 238.89"/>
          <path class="st11" d="M832.69,242.84l-17.33,4.7c-2.47.67-4.9-.41-5.39-2.4s1.12-4.17,3.59-4.84l17.33-4.7c2.47-.67,4.9.41,5.39,2.4s-1.12,4.17-3.59,4.84Z"/>
          <path class="st6" d="M825.82,237.94c8.35.64,14.94-2.48,16.23-6.08.71-1.98-.07-4.44-2.04-5.39-5.27-2.55-18.46,5.93-17.72,9.43.05.26.23.52.23.52.72,1.15,2.4,1.43,3.3,1.52Z"/>
          <path class="st6" d="M819.4,234.26c-7.67-2.32-14.77-.51-17.02,2.83-1.24,1.84-1.21,4.46.37,5.81,4.22,3.61,19.07-2.24,19.39-5.89.02-.27-.07-.57-.07-.57-.34-1.3-1.85-1.92-2.67-2.18Z"/>
          <ellipse class="st2" cx="822.62" cy="236.73" rx="4.66" ry="3.73" transform="translate(-33.13 257.86) rotate(-17.47)"/>
        </g>
      </g>
    </g>
  </g>
</svg>